<svg width="19" height="15" viewBox="0 0 19 15" fill="none" xmlns="http://www.w3.org/2000/svg">
<path opacity="0.3" d="M18.3033 2.00165C17.6283 2.28729 16.9124 2.47481 16.1794 2.558C16.9418 2.12013 17.5283 1.42815 17.8043 0.602416C17.0784 1.0141 16.2842 1.30415 15.4561 1.46002C14.7571 0.746629 13.7797 0.342547 12.7571 0.344244C10.7157 0.344244 9.05889 1.92625 9.05889 3.87776C9.05889 4.15506 9.09155 4.42532 9.15548 4.68338C6.08166 4.53578 3.35743 3.12952 1.53315 0.991158C1.21461 1.51245 1.03292 2.12013 1.03292 2.76792C1.03292 3.99339 1.68552 5.0752 2.67758 5.70904C2.09021 5.69183 1.51573 5.54025 1.00233 5.26699V5.31205C1.00233 7.02375 2.27717 8.45211 3.96805 8.77743C3.42348 8.91836 2.85249 8.93903 2.29832 8.83788C2.76911 10.2421 4.13526 11.2635 5.75278 11.2932C4.48737 12.2395 2.89308 12.8055 1.1601 12.8055C0.865427 12.8052 0.571013 12.7887 0.27832 12.7561C1.9147 13.7584 3.85892 14.3442 5.94712 14.3442C12.7491 14.3442 16.468 8.95834 16.468 4.28772C16.468 4.13495 16.468 3.98218 16.4565 3.8305C17.1802 3.33011 17.8051 2.71088 18.3022 2.00165H18.3033Z" fill="white"/>
</svg>
